<svg xmlns="http://www.w3.org/2000/svg" version="1.1" xmlns:xlink="http://www.w3.org/1999/xlink" xmlns:svgjs="http://svgjs.dev/svgjs" viewBox="0 0 800 800" opacity="0.96"><defs><symbol id="bbburst-shape-1" viewBox="0 0 194 167"><path d="m97 0 96.129 166.5H.871L97 0Z"></path></symbol><symbol id="bbburst-shape-4" viewBox="0 0 149 143"><path d="M71.647 2.781c.898-2.764 4.808-2.764 5.706 0l15.445 47.534a3 3 0 0 0 2.853 2.073h49.98c2.906 0 4.115 3.719 1.764 5.427L106.96 87.193a2.999 2.999 0 0 0-1.09 3.354l15.445 47.534c.898 2.764-2.266 5.062-4.617 3.354l-40.435-29.378a3 3 0 0 0-3.526 0l-40.435 29.378c-2.351 1.708-5.515-.59-4.617-3.354L43.13 90.547a3 3 0 0 0-1.09-3.354L1.605 57.815c-2.35-1.708-1.142-5.427 1.764-5.427h49.98a3 3 0 0 0 2.853-2.073L71.647 2.781Z"></path></symbol><symbol id="bbburst-shape-6" viewBox="0 0 133 116"><path d="M59.7487 10.2513c-13.6683-13.66839-35.8291-13.66839-49.4974 0-13.66839 13.6683-13.66839 35.8291 0 49.4974l49.4974-49.4974ZM66.5 66.5 41.7513 91.2487 66.5 115.997l24.7487-24.7483L66.5 66.5Zm56.249-6.7513c13.668-13.6683 13.668-35.8291 0-49.4974-13.669-13.66839-35.8294-13.66839-49.4977 0l49.4977 49.4974Zm-112.4977 0 31.5 31.5 49.4974-49.4974-31.5-31.5-49.4974 49.4974Zm80.9974 31.5 31.5003-31.5-49.4977-49.4974-31.5 31.5 49.4974 49.4974Z"></path></symbol><symbol id="bbburst-shape-7" viewBox="0 0 139 124"><path fill-rule="evenodd" clip-rule="evenodd" d="M70.1641 15.0917C54.6093.764854 37.8293-2.10782 24.4032 2.82615 10.3804 7.97941.763366 21.4591 1.00047 37.0608c.1068 7.0273 2.86132 13.7317 7.0039 20.2001C12.1442 63.7249 17.853 70.2322 24.25 76.9024c3.8209 3.9842 7.8871 8.0312 12.0767 12.201h.0001c10.0335 9.9862 20.7748 20.6766 30.5497 32.8956 1.38 1.725 3.8972 2.005 5.6223.624.6706-.536 1.1228-1.244 1.3439-2.011 9.5768-11.748 20.0328-22.0735 29.8163-31.7351 4.19-4.1373 8.256-8.1528 12.078-12.1062 6.396-6.6176 12.106-13.0752 16.247-19.4911 4.144-6.4196 6.905-13.0811 7.012-20.0691.237-15.5124-9.399-28.8902-23.411-33.99923-13.32-4.85681-29.9542-2.08621-45.4209 11.88043Zm-3.7351 7.4919C52.1278 8.44857 37.6826 6.46918 27.1626 10.3352 16.2859 14.3323 8.8148 24.7824 8.99955 36.9392c.07575 4.9844 2.03755 10.2234 5.74165 16.0072 3.707 5.7881 8.9752 11.8418 15.2827 18.4187 3.5798 3.7328 7.4978 7.6329 11.6 11.7163 9.0476 9.0063 18.9911 18.9046 28.1786 29.8666 9.2999-11.068 19.4036-21.0473 28.5839-30.1144l.0007-.0006c4.1019-4.0508 8.0189-7.9196 11.5979-11.6222 6.307-6.5252 11.573-12.5298 15.278-18.2697 3.703-5.7362 5.658-10.924 5.734-15.8531.184-12.0276-7.267-22.3914-18.153-26.3608-10.71-3.90518-25.4722-1.80041-40.0023 12.867-1.5547 1.5694-4.0874 1.5813-5.6568.0265-.3146-.3116-.5666-.6625-.7559-1.0371Z"></path></symbol><symbol id="bbburst-shape-8" viewBox="0 0 87 168"><path d="m12 12 31.2546 18.0749c16.4102 9.4902 20.014 31.6325 7.4603 45.8369L36.3296 92.1884c-12.5684 14.2206-8.9394 36.3916 7.5068 45.8636L75 156" stroke-width="14" stroke-linecap="round" stroke-linejoin="round"></path></symbol><symbol id="bbburst-shape-11" viewBox="0 0 194 167"><path d="M10.398 161 97 11l86.603 150H10.397Z" stroke-width="11"></path></symbol></defs><use xlink:href="#bbburst-shape-1" width="29.761855924501578" opacity="0.5568159246883493" transform="matrix(0.9812926756178465,0.19252190726971305,-0.19252190726971305,0.9812926756178465,638.4235904643109,98.40394737740178)" fill="#76ebe8"></use><use xlink:href="#bbburst-shape-7" width="32.157010699581036" opacity="0.0735863720684653" transform="matrix(0.9986807223507393,0.0513499250730275,-0.0513499250730275,0.9986807223507393,623.7105432398903,354.2034787219669)" fill="#76ebe8"></use><use xlink:href="#bbburst-shape-6" width="11.297658666300071" opacity="0.9115453085854707" transform="matrix(0.9677215107394106,0.25202197851027386,-0.25202197851027386,0.9677215107394106,526.2145432517832,36.61375909726121)" fill="#ff5c58"></use><use xlink:href="#bbburst-shape-7" width="10.742808975933519" opacity="0.8994609403930592" transform="matrix(0.931823591112646,0.36291155264875796,-0.36291155264875796,0.931823591112646,536.0405777863486,-19.753916260610424)" fill="#ff5c58"></use><use xlink:href="#bbburst-shape-7" width="37.23323914272036" opacity="0.3907001785770978" transform="matrix(0.9983380848195926,-0.057628711583270494,0.057628711583270494,0.9983380848195926,587.6431247985361,151.8879132663207)" fill="#ffbd9b"></use><use xlink:href="#bbburst-shape-7" width="30.143586473183646" opacity="0.13670134240115117" transform="matrix(0.7102380220411674,-0.7039616126231957,0.7039616126231957,0.7102380220411674,-253.7089338437286,-16.0921771932737)" fill="#ffa6d5"></use><use xlink:href="#bbburst-shape-1" width="31.22672450052757" opacity="0.017498294533177416" transform="matrix(0.7958494675861378,-0.6054945292427183,0.6054945292427183,0.7958494675861378,410.334000703175,-262.810908851527)" fill="#ff5c58"></use><use xlink:href="#bbburst-shape-7" width="16.05898420779222" opacity="0.7821986949308788" transform="matrix(0.9107964177826412,-0.4128557682221582,0.4128557682221582,0.9107964177826412,269.8739028071338,-49.356924174200344)" fill="#76ebe8"></use><use xlink:href="#bbburst-shape-4" width="17.877874534664116" opacity="0.7608229946565997" transform="matrix(0.993565865519954,-0.11325577633650685,0.11325577633650685,0.993565865519954,430.20512266229554,-63.203294389588564)" fill="#ffbd9b"></use><use xlink:href="#bbburst-shape-1" width="28.172037501243217" opacity="0.2865150325122262" transform="matrix(0.9904184111010884,-0.13809913450849487,0.13809913450849487,0.9904184111010884,342.25267162281693,-315.05057900968467)" fill="#76ebe8"></use><use xlink:href="#bbburst-shape-8" width="27.7145503467752" opacity="0.5305038710562106" transform="matrix(0.8989545682853429,-0.438041874892016,0.438041874892016,0.8989545682853429,45.424149861908916,176.0262646726777)" fill="none" stroke="#76ebe8"></use><use xlink:href="#bbburst-shape-6" width="22.27820043993179" opacity="0.6783841088872169" transform="matrix(0.8373387870031879,-0.546684329188271,0.546684329188271,0.8373387870031879,63.60029318764592,167.04808436174056)" fill="#76ebe8"></use><use xlink:href="#bbburst-shape-7" width="37.48404675819093" opacity="0.006569192508046773" transform="matrix(0.9582407630157551,0.28596265507052393,-0.28596265507052393,0.9582407630157551,139.9915403016607,281.27940424092685)" fill="#ff5c58"></use><use xlink:href="#bbburst-shape-6" width="18.53075138873416" opacity="0.7308370862789333" transform="matrix(0.8434986119812812,0.5371313541263926,-0.5371313541263926,0.8434986119812812,724.0935873245317,26.50112457930777)" fill="#ffbd9b"></use><use xlink:href="#bbburst-shape-7" width="18.136004577309777" opacity="0.709300915181714" transform="matrix(0.8315276696684991,0.5554833342015542,-0.5554833342015542,0.8315276696684991,640.5410391284013,-65.90643017255036)" fill="#76ebe8"></use><use xlink:href="#bbburst-shape-8" width="14.186950434996657" opacity="0.7820796675067812" transform="matrix(0.7694520600720774,0.6387045696179385,-0.6387045696179385,0.7694520600720774,643.097618663489,185.5078063815419)" fill="none" stroke="#ffa6d5"></use><use xlink:href="#bbburst-shape-4" width="31.676717169928217" opacity="0.5315880086018525" transform="matrix(0.8814287909181384,0.4723169344207219,-0.4723169344207219,0.8814287909181384,513.5241155696731,-161.66274438089266)" fill="#ffbd9b"></use><use xlink:href="#bbburst-shape-1" width="39.239817936142025" opacity="0.30046584088614803" transform="matrix(0.9903389452961014,-0.13866785290688452,0.13866785290688452,0.9903389452961014,40.858057624601656,-128.62047468947765)" fill="#ffa6d5"></use><use xlink:href="#bbburst-shape-7" width="38.341776207576956" opacity="0.15129284391405629" transform="matrix(0.775016425820074,0.6319410887963195,-0.6319410887963195,0.775016425820074,274.22426869154447,194.65598797211408)" fill="#ff5c58"></use><use xlink:href="#bbburst-shape-11" width="10.783522638078324" opacity="0.7997257563698874" transform="matrix(0.9618655995585088,-0.2735225189741245,0.2735225189741245,0.9618655995585088,214.12156695864553,-38.59882205305837)" fill="none" stroke="#ffbd9b"></use><use xlink:href="#bbburst-shape-11" width="27.350212445244534" opacity="0.16743556490689926" transform="matrix(0.9384216273653038,0.34549218412730404,-0.34549218412730404,0.9384216273653038,893.6218361687252,89.15573865775275)" fill="none" stroke="#ffbd9b"></use><use xlink:href="#bbburst-shape-6" width="24.010538537022498" opacity="0.4291591647388102" transform="matrix(0.7466183932333222,-0.6652525647343963,0.6652525647343963,0.7466183932333222,253.80160416682025,-112.87696308550971)" fill="#ffa6d5"></use><use xlink:href="#bbburst-shape-6" width="15.786964594662354" opacity="0.686613765419412" transform="matrix(0.8373705342373157,-0.5466356998871484,0.5466356998871484,0.8373705342373157,253.97076532956333,-47.29327826279052)" fill="#ffa6d5"></use><use xlink:href="#bbburst-shape-11" width="39.68986116649126" opacity="-0.07370054122556802" transform="matrix(0.8558102050486911,-0.5172899505446799,0.5172899505446799,0.8558102050486911,517.3336868440294,409.3048280932633)" fill="none" stroke="#ffbd9b"></use><use xlink:href="#bbburst-shape-7" width="32.54286083901754" opacity="0.45931796344050224" transform="matrix(0.7953298484957032,0.606176898348825,-0.606176898348825,0.7953298484957032,422.3783805662523,-55.83353531186805)" fill="#76ebe8"></use><use xlink:href="#bbburst-shape-7" width="31.360447807339405" opacity="0.5051994146062936" transform="matrix(0.9999980879257157,0.0019555421019684474,-0.0019555421019684474,0.9999980879257157,337.4371106229028,217.48273823348637)" fill="#76ebe8"></use><use xlink:href="#bbburst-shape-7" width="27.762656023795735" opacity="0.4847822103141727" transform="matrix(0.9921300936819049,0.12521133020112327,-0.12521133020112327,0.9921300936819049,624.6945824986216,-133.626121735837)" fill="#ffbd9b"></use><use xlink:href="#bbburst-shape-11" width="20.759903354057585" opacity="0.46377118227838077" transform="matrix(0.991356568707182,-0.13119509777854624,0.13119509777854624,0.991356568707182,562.0066323898867,-83.12490178160357)" fill="none" stroke="#76ebe8"></use><use xlink:href="#bbburst-shape-8" width="33.77858671657322" opacity="0.4598565080189162" transform="matrix(0.8944656397103196,0.4471366898137624,-0.4471366898137624,0.8944656397103196,643.191802430586,264.3770244349089)" fill="none" stroke="#ff5c58"></use><use xlink:href="#bbburst-shape-1" width="33.968136489473814" opacity="0.2201477830478411" transform="matrix(0.9759158672830397,0.2181472438175475,-0.2181472438175475,0.9759158672830397,201.844434404341,-219.60527497607384)" fill="#ff5c58"></use><use xlink:href="#bbburst-shape-6" width="14.507747922751236" opacity="0.8020170575048537" transform="matrix(0.9931441279363978,-0.11689628371103954,0.11689628371103954,0.9931441279363978,256.9756518213475,1.2551429197769153)" fill="#ffbd9b"></use><use xlink:href="#bbburst-shape-7" width="30.39769882005185" opacity="0.08472285746920205" transform="matrix(0.9970262847242447,0.07706223179333226,-0.07706223179333226,0.9970262847242447,777.4322820669984,-196.7021495227179)" fill="#ff5c58"></use><use xlink:href="#bbburst-shape-4" width="27.970885315089088" opacity="0.4708854692311014" transform="matrix(0.9748471634659567,-0.22287442177687924,0.22287442177687924,0.9748471634659567,59.389988007527094,24.525062453238263)" fill="#ffa6d5"></use><use xlink:href="#bbburst-shape-4" width="28.54682808021878" opacity="0.3711582442808289" transform="matrix(0.9801961655368889,-0.1980289803710048,0.1980289803710048,0.9801961655368889,29.07169672967538,-43.470926253179414)" fill="#ffbd9b"></use><use xlink:href="#bbburst-shape-6" width="39.685248209548334" opacity="0.20132671820363834" transform="matrix(0.9690238669912699,-0.2469670933571631,0.2469670933571631,0.9690238669912699,250.70073944573474,375.33013475932677)" fill="#76ebe8"></use><use xlink:href="#bbburst-shape-4" width="26.23168856772287" opacity="0.5301234211750359" transform="matrix(0.9371154171904024,0.3490196195976067,-0.3490196195976067,0.9371154171904024,738.2545779861096,6.090224747050627)" fill="#ff5c58"></use><use xlink:href="#bbburst-shape-8" width="26.498314023787955" opacity="0.5034397024161292" transform="matrix(0.9898115153563841,-0.14238386168347344,0.14238386168347344,0.9898115153563841,378.7188836969517,-212.09941053558484)" fill="none" stroke="#ffa6d5"></use><use xlink:href="#bbburst-shape-8" width="38.71388421479192" opacity="0.23285494250055638" transform="matrix(0.7208230884069076,0.6931190916570741,-0.6931190916570741,0.7208230884069076,462.58393921577783,-182.61735880385157)" fill="none" stroke="#ffa6d5"></use><use xlink:href="#bbburst-shape-6" width="28.823479798728837" opacity="0.33986696928775506" transform="matrix(0.9719800825429394,0.2350632237076243,-0.2350632237076243,0.9719800825429394,564.7781993999486,-276.8900198141013)" fill="#ff5c58"></use><use xlink:href="#bbburst-shape-6" width="16.56409501436464" opacity="0.863811868356259" transform="matrix(0.8325533781678366,-0.5539448280301236,0.5539448280301236,0.8325533781678366,112.83519927710731,89.20435623227866)" fill="#ffa6d5"></use><use xlink:href="#bbburst-shape-1" width="36.05925730180758" opacity="0.2831342368327231" transform="matrix(0.969675185503235,0.24439728848591355,-0.24439728848591355,0.969675185503235,622.5894088391374,297.26422500360854)" fill="#ff5c58"></use><use xlink:href="#bbburst-shape-11" width="19.367882230547334" opacity="0.8287970478550616" transform="matrix(0.9980016762860395,0.06318745231654045,-0.06318745231654045,0.9980016762860395,459.2362625017808,63.44839379713761)" fill="none" stroke="#76ebe8"></use><use xlink:href="#bbburst-shape-6" width="14.595873245205576" opacity="0.8265920224612695" transform="matrix(0.9671575494138748,-0.2541776438079248,0.2541776438079248,0.9671575494138748,258.1780190274906,85.66114482424513)" fill="#ffa6d5"></use><use xlink:href="#bbburst-shape-11" width="13.419626586463288" opacity="0.7966929605398019" transform="matrix(0.8079531841571054,-0.5892466819680826,0.5892466819680826,0.8079531841571054,90.18023286125666,141.16704501692544)" fill="none" stroke="#ffbd9b"></use><use xlink:href="#bbburst-shape-1" width="12.925510541826597" opacity="0.894495622054846" transform="matrix(0.9999105486804869,0.01337514999870014,-0.01337514999870014,0.9999105486804869,446.3462973275455,-1.3532769418391695)" fill="#ffbd9b"></use><use xlink:href="#bbburst-shape-4" width="12.221290922018872" opacity="0.8225242340837782" transform="matrix(0.9410535364949518,-0.33825765542016095,0.33825765542016095,0.9410535364949518,183.3672497886737,-0.14100051914687128)" fill="#ff5c58"></use><use xlink:href="#bbburst-shape-4" width="31.804789447832537" opacity="0.04056820350176771" transform="matrix(0.7838001666317672,0.6210131228790692,-0.6210131228790692,0.7838001666317672,384.59522234120993,-274.4250596488241)" fill="#ffbd9b"></use><use xlink:href="#bbburst-shape-6" width="10.344311142506415" opacity="0.8880613348047152" transform="matrix(0.9262682681315126,0.37686482384622777,-0.37686482384622777,0.9262682681315126,515.6498673540575,67.78004387440126)" fill="#ffa6d5"></use><use xlink:href="#bbburst-shape-11" width="41.64906087205513" opacity="-0.08752887458572234" transform="matrix(0.9087873371256981,0.4172596025018269,-0.4172596025018269,0.9087873371256981,906.3805019795348,-306.1724899759869)" fill="none" stroke="#ffa6d5"></use><use xlink:href="#bbburst-shape-11" width="26.94639978642453" opacity="0.6473141520290366" transform="matrix(0.9952286138533566,-0.09757051894669022,0.09757051894669022,0.9952286138533566,504.99451786659574,22.70274969554697)" fill="none" stroke="#ff5c58"></use><use xlink:href="#bbburst-shape-8" width="26.95730051548302" opacity="0.3243296174671838" transform="matrix(0.9501684212169135,-0.31173702270047754,0.31173702270047754,0.9501684212169135,193.79977744910215,-272.0546112126769)" fill="none" stroke="#ff5c58"></use><use xlink:href="#bbburst-shape-8" width="17.629069350885196" opacity="0.7693709571739644" transform="matrix(0.9943764271630647,0.10590335737085098,-0.10590335737085098,0.9943764271630647,336.9794781809454,39.21185472514253)" fill="none" stroke="#76ebe8"></use><use xlink:href="#bbburst-shape-7" width="27.444256894406205" opacity="-0.06909473327733573" transform="matrix(0.921795252433887,-0.3876770725621346,0.3876770725621346,0.921795252433887,-87.03645263943356,396.5580353311348)" fill="#ffa6d5"></use><use xlink:href="#bbburst-shape-7" width="13.05301625299702" opacity="0.8209116490268702" transform="matrix(0.9867168584228859,0.16244950385910836,-0.16244950385910836,0.9867168584228859,530.2969132981285,40.835233890468885)" fill="#ff5c58"></use><use xlink:href="#bbburst-shape-7" width="30.431078931373598" opacity="0.4114127834175997" transform="matrix(0.9882079903616489,-0.15311749666642066,0.15311749666642066,0.9882079903616489,489.8300373845125,213.26480132614)" fill="#ff5c58"></use><use xlink:href="#bbburst-shape-1" width="17.015738259452466" opacity="0.7310649997179324" transform="matrix(0.9040244590968309,-0.42748073331400827,0.42748073331400827,0.9040244590968309,163.6505438137255,148.44056857549663)" fill="#ffbd9b"></use><use xlink:href="#bbburst-shape-6" width="9.855323814609976" opacity="0.9327020529807906" transform="matrix(0.7345563689651993,0.6785476702580756,-0.6785476702580756,0.7345563689651993,638.902154331543,111.8935772120227)" fill="#76ebe8"></use><use xlink:href="#bbburst-shape-8" width="22.908112357475083" opacity="0.5977629161154547" transform="matrix(0.9370675152647728,-0.34914820898223814,0.34914820898223814,0.9370675152647728,319.2771644276333,-137.88938290814767)" fill="none" stroke="#ff5c58"></use><use xlink:href="#bbburst-shape-11" width="16.216923450051702" opacity="0.8374202132496656" transform="matrix(0.9903789852091532,0.13838159435448008,-0.13838159435448008,0.9903789852091532,414.07109090955777,-62.63398866653972)" fill="none" stroke="#ffa6d5"></use><use xlink:href="#bbburst-shape-7" width="41.96343066704557" opacity="0.3240408519109167" transform="matrix(0.7392846751881224,0.6733930271631808,-0.6733930271631808,0.7392846751881224,552.839620892323,377.0034871904562)" fill="#ffa6d5"></use><use xlink:href="#bbburst-shape-8" width="19.612714353600452" opacity="0.6187765084888034" transform="matrix(0.7217769056013998,0.6921257823116171,-0.6921257823116171,0.7217769056013998,666.6192237045188,-67.01959781464876)" fill="none" stroke="#ffa6d5"></use><use xlink:href="#bbburst-shape-11" width="20.81143454996515" opacity="0.6038325167753809" transform="matrix(0.7919475312093004,0.6105891481278505,-0.6105891481278505,0.7919475312093004,717.2304844836829,235.42985445085247)" fill="none" stroke="#ffa6d5"></use><use xlink:href="#bbburst-shape-1" width="20.041434851383716" opacity="0.7048992928888904" transform="matrix(0.7228548448413403,-0.6909999083135987,0.6909999083135987,0.7228548448413403,-5.981125039333676,66.18966765968105)" fill="#ffbd9b"></use><use xlink:href="#bbburst-shape-4" width="18.22061986388863" opacity="0.6659203202465993" transform="matrix(0.7449972157327325,-0.6670675742010523,0.6670675742010523,0.7449972157327325,-13.569771711443138,162.95613957497324)" fill="#ff5c58"></use><use xlink:href="#bbburst-shape-8" width="25.831142696157" opacity="0.5395968312427376" transform="matrix(0.9444307332352737,-0.32871049590891277,0.32871049590891277,0.9444307332352737,133.11529546330866,-140.0958517432517)" fill="none" stroke="#ffa6d5"></use><use xlink:href="#bbburst-shape-6" width="27.564388440825137" opacity="0.36400086180598057" transform="matrix(0.8633382902899939,0.504625600340639,-0.504625600340639,0.8633382902899939,872.4622348046673,1.9079781793842585)" fill="#76ebe8"></use><use xlink:href="#bbburst-shape-11" width="35.82070424883727" opacity="0.11638388642839448" transform="matrix(0.8656796114833847,-0.5005984521170397,0.5005984521170397,0.8656796114833847,349.66412933386397,-299.1901055702835)" fill="none" stroke="#ffbd9b"></use><use xlink:href="#bbburst-shape-7" width="30.286695287068824" opacity="0.17231784851924392" transform="matrix(0.9464983150794927,0.3227087534475653,-0.3227087534475653,0.9464983150794927,586.3455656335841,-349.0222220708958)" fill="#ffa6d5"></use><use xlink:href="#bbburst-shape-11" width="27.47737605662189" opacity="0.54646460230239" transform="matrix(0.8656333549515165,-0.5006784345219814,0.5006784345219814,0.8656333549515165,-6.747097685042036,122.44371731750488)" fill="none" stroke="#ff5c58"></use><use xlink:href="#bbburst-shape-11" width="20.165701697634365" opacity="0.6223637645017515" transform="matrix(0.770820338307479,-0.6370525928457897,0.6370525928457897,0.770820338307479,4.302492886130835,-7.961673589793634)" fill="none" stroke="#ff5c58"></use><use xlink:href="#bbburst-shape-8" width="11.427432723241914" opacity="0.9450434173806941" transform="matrix(0.9241411176608652,-0.38205129845156516,0.38205129845156516,0.9241411176608652,226.35794596456267,13.289407629206892)" fill="none" stroke="#ffa6d5"></use><use xlink:href="#bbburst-shape-4" width="9.079816809975444" opacity="0.9825756197950453" transform="matrix(0.9736015128302298,0.22825445059119437,-0.22825445059119437,0.9736015128302298,486.5658469080524,17.36584191411424)" fill="#ffa6d5"></use><use xlink:href="#bbburst-shape-11" width="18.853125839112195" opacity="0.7427005815333794" transform="matrix(0.9604691548449124,0.27838642673718816,-0.27838642673718816,0.9604691548449124,479.66224715913427,-100.58175689154467)" fill="none" stroke="#76ebe8"></use><use xlink:href="#bbburst-shape-6" width="21.936310103552742" opacity="0.17185674126523043" transform="matrix(0.782258436093437,0.6229540425750923,-0.6229540425750923,0.782258436093437,592.7968821030868,-289.32143582886613)" fill="#ff5c58"></use><use xlink:href="#bbburst-shape-11" width="26.495596307457497" opacity="0.6564864853056126" transform="matrix(0.945262601226361,-0.326310610803225,0.326310610803225,0.945262601226361,191.0761685038765,-113.99845517434073)" fill="none" stroke="#ff5c58"></use><use xlink:href="#bbburst-shape-7" width="10.692406559175986" opacity="0.9020453187692912" transform="matrix(0.9957671844380495,-0.09191144866837685,0.09191144866837685,0.9957671844380495,383.664488953465,-33.56220920517785)" fill="#ffa6d5"></use><use xlink:href="#bbburst-shape-1" width="33.38911027907982" opacity="-0.09853862298092841" transform="matrix(0.904420137670292,0.4266429591314618,-0.4266429591314618,0.904420137670292,206.49074227269574,-318.9075363792361)" fill="#76ebe8"></use><use xlink:href="#bbburst-shape-8" width="25.467537730794916" opacity="0.7277944515731591" transform="matrix(0.9287270677740289,0.37076412121975105,-0.37076412121975105,0.9287270677740289,570.2576658121849,141.53108893357046)" fill="none" stroke="#ff5c58"></use><use xlink:href="#bbburst-shape-7" width="25.051784077368204" opacity="0.5498687369410096" transform="matrix(0.9833209139538742,-0.18187902622599839,0.18187902622599839,0.9833209139538742,122.04499095093595,-53.16794725419942)" fill="#76ebe8"></use><use xlink:href="#bbburst-shape-8" width="32.37149390248464" opacity="0.34851278832078214" transform="matrix(0.9300953229892935,0.3673182409756445,-0.3673182409756445,0.9300953229892935,313.64890469795364,217.78798512380286)" fill="none" stroke="#ffbd9b"></use><use xlink:href="#bbburst-shape-4" width="35.890977064093704" opacity="0.2419793948025093" transform="matrix(0.9970840027364903,-0.07631180437506661,0.07631180437506661,0.9970840027364903,662.6045114947675,142.64732118876424)" fill="#ffa6d5"></use><use xlink:href="#bbburst-shape-11" width="30.979623630793718" opacity="0.2815560671230931" transform="matrix(0.7206400463582081,0.6933093996080247,-0.6933093996080247,0.7206400463582081,956.5897250237382,-41.88274597850699)" fill="none" stroke="#ffbd9b"></use><use xlink:href="#bbburst-shape-7" width="36.729080974768316" opacity="0.12158344021248801" transform="matrix(0.7140447745021167,-0.7001000357136267,0.7001000357136267,0.7140447745021167,-53.75991969381218,488.55735735403925)" fill="#76ebe8"></use><use xlink:href="#bbburst-shape-4" width="30.660818296519658" opacity="0.5982428516824332" transform="matrix(0.8365352319655034,-0.5479131369847062,0.5479131369847062,0.8365352319655034,75.34778136233655,229.03819229962426)" fill="#ffa6d5"></use><use xlink:href="#bbburst-shape-8" width="16.334067240118454" opacity="0.8232288026858119" transform="matrix(0.7092275505605732,-0.7049796319936127,0.7049796319936127,0.7092275505605732,116.94832799589085,42.66043151451157)" fill="none" stroke="#ffbd9b"></use><use xlink:href="#bbburst-shape-7" width="30.849215240393473" opacity="0.4316288312868539" transform="matrix(0.9649087964591939,-0.26258525190053983,0.26258525190053983,0.9649087964591939,140.5331575134398,232.51970081399833)" fill="#ff5c58"></use><use xlink:href="#bbburst-shape-8" width="33.37925308357602" opacity="0.34587807791702374" transform="matrix(0.858264972276685,-0.5132068173386839,0.5132068173386839,0.858264972276685,394.00516651427915,-137.26160479370594)" fill="none" stroke="#76ebe8"></use><use xlink:href="#bbburst-shape-6" width="21.303238031883716" opacity="0.695846887399969" transform="matrix(0.9999673098354407,0.00808574427445237,-0.00808574427445237,0.9999673098354407,513.520900676265,64.01404085528202)" fill="#ffbd9b"></use><use xlink:href="#bbburst-shape-11" width="18.19947701386208" opacity="0.7370000402440331" transform="matrix(0.8848157949451104,-0.4659409930620532,0.4659409930620532,0.8848157949451104,131.3823780310687,-42.19133892153178)" fill="none" stroke="#ffbd9b"></use><use xlink:href="#bbburst-shape-1" width="20.561006856412458" opacity="0.670346316331252" transform="matrix(0.9594717181005729,0.2818049363746754,-0.2818049363746754,0.9594717181005729,477.13047650443724,159.43706992160327)" fill="#76ebe8"></use><use xlink:href="#bbburst-shape-6" width="16.985671294899902" opacity="0.7272732191724364" transform="matrix(0.9963048309779914,0.08588762291457355,-0.08588762291457355,0.9963048309779914,505.9855417219312,93.73919309429613)" fill="#76ebe8"></use><use xlink:href="#bbburst-shape-8" width="22.08096616623062" opacity="0.4749241129417259" transform="matrix(0.9854958561522279,0.1696994917693844,-0.1696994917693844,0.9854958561522279,686.206283016914,61.32517503080959)" fill="none" stroke="#ffa6d5"></use><use xlink:href="#bbburst-shape-7" width="40.08365618417064" opacity="0.1991368169297505" transform="matrix(0.9947099695906617,0.1027233001657606,-0.1027233001657606,0.9947099695906617,677.2571300888437,253.44251651953795)" fill="#ff5c58"></use><use xlink:href="#bbburst-shape-4" width="8.90021582903601" opacity="0.9580423559339827" transform="matrix(0.9899286039374349,-0.14156750724117897,0.14156750724117897,0.9899286039374349,354.05994968848603,-6.68017387579539)" fill="#ff5c58"></use><use xlink:href="#bbburst-shape-6" width="38.43273655281388" opacity="0.2486768996929285" transform="matrix(0.9827764356871912,0.18479847796445792,-0.18479847796445792,0.9827764356871912,636.5502133493759,-281.8986330261718)" fill="#ffa6d5"></use><use xlink:href="#bbburst-shape-7" width="13.89942583423547" opacity="0.8441233591359356" transform="matrix(0.8979677951433294,0.4400611762987365,-0.4400611762987365,0.8979677951433294,615.2957839499497,-15.610206028905452)" fill="#ffbd9b"></use><use xlink:href="#bbburst-shape-1" width="21.765472972066767" opacity="0.543341739529773" transform="matrix(0.9048495875536527,0.4257313987762524,-0.4257313987762524,0.9048495875536527,691.2609148805132,-125.01791007992034)" fill="#ffbd9b"></use><use xlink:href="#bbburst-shape-1" width="44.42210849292987" opacity="0.1476595756210516" transform="matrix(0.9654196212655725,0.26070089158926674,-0.26070089158926674,0.9654196212655725,337.17296654275947,-346.7259170734528)" fill="#76ebe8"></use><use xlink:href="#bbburst-shape-7" width="23.39392472311669" opacity="0.6429977021117008" transform="matrix(0.9482346291226946,-0.3175706033822176,0.3175706033822176,0.9482346291226946,389.8010417231419,-72.63752650271778)" fill="#ffbd9b"></use><use xlink:href="#bbburst-shape-7" width="39.30243607259289" opacity="0.06618752158567243" transform="matrix(0.8364113031150698,-0.5481023006897077,0.5481023006897077,0.8364113031150698,521.5426661826475,297.3738214188884)" fill="#ff5c58"></use><use xlink:href="#bbburst-shape-6" width="38.24672623908152" opacity="0.15170891154949295" transform="matrix(0.9906339284614603,-0.13654457067571213,0.13654457067571213,0.9906339284614603,609.955838603856,-249.25136462252976)" fill="#ffa6d5"></use><use xlink:href="#bbburst-shape-4" width="35.96501205166203" opacity="0.19142253492223626" transform="matrix(0.9856838439041656,-0.16860415139108642,0.16860415139108642,0.9856838439041656,-47.90081384442096,-19.740471070662522)" fill="#76ebe8"></use><use xlink:href="#bbburst-shape-1" width="31.520637266608084" opacity="0.3314425970542305" transform="matrix(0.9817606526475828,-0.19012106909280788,0.19012106909280788,0.9817606526475828,607.3777463563969,44.61323071657836)" fill="#ff5c58"></use><use xlink:href="#bbburst-shape-6" width="19.186505974556223" opacity="0.721409172384746" transform="matrix(0.8775388978230254,-0.47950545649403176,0.47950545649403176,0.8775388978230254,74.41941218685307,54.7932311534089)" fill="#ffbd9b"></use><use xlink:href="#bbburst-shape-7" width="17.52392849964293" opacity="0.8335542494479526" transform="matrix(0.8371311797337161,0.5470021827357151,-0.5470021827357151,0.8371311797337161,682.821560812935,37.700930811300054)" fill="#ffbd9b"></use><use xlink:href="#bbburst-shape-4" width="40.087192825208525" opacity="0.17627463826490186" transform="matrix(0.9670707855588417,0.2545075553271546,-0.2545075553271546,0.9670707855588417,252.71501932971128,299.0371585125071)" fill="#76ebe8"></use><use xlink:href="#bbburst-shape-11" width="31.273315054446687" opacity="0.1834256608670034" transform="matrix(0.7157450792938961,0.6983616408900007,-0.6983616408900007,0.7157450792938961,1030.5341802633252,39.96873141687229)" fill="none" stroke="#ffa6d5"></use><use xlink:href="#bbburst-shape-7" width="31.046537897395837" opacity="0.37879178862209784" transform="matrix(0.8197100631978402,0.5727786765341328,-0.5727786765341328,0.8197100631978402,359.8156800400626,174.3265213498587)" fill="#ff5c58"></use><use xlink:href="#bbburst-shape-6" width="11.227684553734646" opacity="0.9236581664958239" transform="matrix(0.9815842399757975,0.19102978781105337,-0.19102978781105337,0.9815842399757975,471.09735339325994,40.6472639919553)" fill="#ffa6d5"></use><use xlink:href="#bbburst-shape-4" width="40.213314295385146" opacity="0.29340407068476304" transform="matrix(0.8953727657802589,-0.4453174264488306,0.4453174264488306,0.8953727657802589,-111.19259744309653,93.60491001181344)" fill="#ffa6d5"></use><use xlink:href="#bbburst-shape-8" width="21.68480977400459" opacity="0.576881966758433" transform="matrix(0.8758841856901778,-0.4825213915028577,0.4825213915028577,0.8758841856901778,331.38062834153914,190.25868137245004)" fill="none" stroke="#ffbd9b"></use><use xlink:href="#bbburst-shape-1" width="18.80617013216299" opacity="0.619210819183124" transform="matrix(0.9545963176360516,0.2979024510736536,-0.2979024510736536,0.9545963176360516,338.93796379449793,9.093319544156486)" fill="#ff5c58"></use><use xlink:href="#bbburst-shape-4" width="37.73788111895809" opacity="0.04000467380598316" transform="matrix(0.8972265658693694,-0.4415704807822393,0.4415704807822393,0.8972265658693694,-144.64191289457648,-202.22534953041207)" fill="#ffa6d5"></use><use xlink:href="#bbburst-shape-8" width="10.241651273949962" opacity="0.8913680130587338" transform="matrix(0.8087937006639991,0.5880924670204791,-0.5880924670204791,0.8087937006639991,587.9847826749808,50.423924690193985)" fill="none" stroke="#ffbd9b"></use><use xlink:href="#bbburst-shape-1" width="29.257757717530094" opacity="0.17931914161322715" transform="matrix(0.7077405664678695,0.706472427328724,-0.706472427328724,0.7077405664678695,759.3878162954754,465.46467310286295)" fill="#ff5c58"></use><use xlink:href="#bbburst-shape-7" width="30.362067073576892" opacity="0.37705539727549064" transform="matrix(0.9644211043224048,-0.26437082580639115,0.26437082580639115,0.9644211043224048,294.45892883761474,298.189928217533)" fill="#76ebe8"></use><use xlink:href="#bbburst-shape-1" width="26.785155619847266" opacity="0.6194246688491067" transform="matrix(0.8537319426404739,-0.520712752019117,0.520712752019117,0.8537319426404739,342.1362028465694,9.48899508571128)" fill="#ffbd9b"></use><use xlink:href="#bbburst-shape-11" width="14.659886378535475" opacity="0.7711558768210658" transform="matrix(0.8947160064872635,-0.4466354976213636,0.4466354976213636,0.8947160064872635,316.9822962593113,57.211569722229285)" fill="none" stroke="#ff5c58"></use><use xlink:href="#bbburst-shape-6" width="29.71405630036407" opacity="0.3836055484252019" transform="matrix(0.7589257707167686,0.6511771452853353,-0.6511771452853353,0.7589257707167686,528.0403044266737,-162.76366290507795)" fill="#76ebe8"></use><use xlink:href="#bbburst-shape-1" width="31.967310229200287" opacity="0.5861247182400493" transform="matrix(0.8128284023268854,-0.5825032088930696,0.5825032088930696,0.8128284023268854,173.00999402976268,269.4869660444996)" fill="#ffa6d5"></use><use xlink:href="#bbburst-shape-4" width="39.653414717512696" opacity="0.18416183456486235" transform="matrix(0.9927066209626494,-0.12055523504567812,0.12055523504567812,0.9927066209626494,20.888235365266098,200.09840177759764)" fill="#76ebe8"></use><use xlink:href="#bbburst-shape-7" width="23.88800297246884" opacity="0.45146660128465177" transform="matrix(0.9033263759643764,0.4289539118449278,-0.4289539118449278,0.9033263759643764,551.1251421060433,-213.15136396417958)" fill="#ffbd9b"></use><use xlink:href="#bbburst-shape-7" width="13.175772113128751" opacity="0.8560461426164085" transform="matrix(0.7329495395081725,0.6802830091474854,-0.6802830091474854,0.7329495395081725,676.6345228520505,166.39953288500294)" fill="#ff5c58"></use><use xlink:href="#bbburst-shape-1" width="30.277006952261488" opacity="0.3966865940011868" transform="matrix(0.9799000950692353,0.19948885603788433,-0.19948885603788433,0.9799000950692353,279.0511665497311,-192.7995291411512)" fill="#ffa6d5"></use></svg>